<svg width="120" height="120" viewBox="0 0 120 120" fill="none" xmlns="http://www.w3.org/2000/svg">
<path fill-rule="evenodd" clip-rule="evenodd" d="M91.25 94.75C91.25 100.687 86.4371 105.5 80.5 105.5C74.5629 105.5 69.75 100.687 69.75 94.75C69.75 88.8129 74.5629 84 80.5 84C86.4371 84 91.25 88.8129 91.25 94.75ZM85.2426 96.6171H82.3673V99.4924C82.3673 100.365 81.6597 101.073 80.7867 101.073C79.9137 101.073 79.2061 100.365 79.2061 99.4924V96.6171H76.3306C75.4576 96.6171 74.75 95.9093 74.75 95.0365C74.75 94.1637 75.4576 93.4559 76.3306 93.4559H79.2061V90.5806C79.2061 89.7076 79.9137 89 80.7867 89C81.6597 89 82.3673 89.7076 82.3673 90.5806V93.4559H85.2426C86.1156 93.4559 86.8232 94.1637 86.8232 95.0365C86.8232 95.9093 86.1156 96.6171 85.2426 96.6171Z" fill="#CBCEDA"/>
<path fill-rule="evenodd" clip-rule="evenodd" d="M120 60C120 93.1371 93.1371 120 60 120C26.8629 120 0 93.1371 0 60C0 26.8629 26.8629 0 60 0C93.1371 0 120 26.8629 120 60ZM19.5222 97.9713C29.6472 108.76 44.0365 115.5 60 115.5C69.6057 115.5 78.6414 113.06 86.521 108.765C87.7201 108.249 88.8398 107.584 89.8566 106.793C89.9865 106.71 90.116 106.627 90.2451 106.542L90.2032 106.515C93.5909 103.718 95.75 99.4863 95.75 94.75C95.75 86.3277 88.9223 79.5 80.5 79.5C73.6136 79.5 67.7932 84.0645 65.8994 90.3331C63.7 88.8465 62.2323 87.8468 61.9917 87.6725C61.5534 87.3551 60.8115 86.7428 60.7682 86.2103C60.6746 85.0623 62.9268 82.7934 64.571 81.1371C66.1423 79.5544 67.7669 77.9179 68.9559 76.0811C70.5759 73.5782 71.6667 71.1552 72.3982 68.398C75.739 67.6381 78.012 65.6953 78.8755 62.8152C79.9801 59.1309 80.7522 54.0972 78.1562 51.0364C77.1376 49.8351 75.8363 49.2012 74.5059 48.9045C77.4399 40.7274 76.28 34.7842 75.372 32.0463C80.1834 26.5068 79.56 17.5733 79.5287 17.1677C79.4572 16.238 78.8409 15.4386 77.9586 15.131C77.0767 14.8242 76.0956 15.0667 75.4597 15.7499C74.7816 16.4786 72.5622 17.5146 69.2918 18.068C65.6714 18.6805 61.8853 18.5277 58.6305 17.6377C50.1377 15.3155 43.4894 19.999 40.8873 22.2688C39.9094 21.98 38.5585 21.7095 37.0145 21.7591C34.1588 21.8488 30.1326 23.0468 27.1678 28.2437C23.1601 35.268 24.5572 44.2046 25.7204 48.839C24.2796 49.1026 22.8482 49.7384 21.7476 51.0364C19.1516 54.0972 19.9234 59.1309 21.028 62.8152C21.8918 65.6953 24.1646 67.6381 27.5053 68.398C28.2371 71.1556 29.3276 73.5785 30.9481 76.0814C32.137 77.9179 33.7617 79.5546 35.333 81.1374C36.9773 82.7937 39.2292 85.0623 39.1355 86.2103C39.0922 86.7428 38.3503 87.3551 37.9121 87.6725C37.1296 88.1509 30.2352 92.0398 24.2448 95.4187C22.092 96.633 20.5768 97.4321 19.5222 97.9713Z" fill="#CBCEDA"/>
</svg>
