<svg width="59" height="55" viewBox="0 0 59 55" fill="none" xmlns="http://www.w3.org/2000/svg">
<path d="M29.5 0C27.435 0 25.8125 1.4883 25.8125 3.3825C25.8125 5.2767 27.435 6.765 29.5 6.765C31.565 6.765 33.1875 5.2767 33.1875 3.3825C33.1875 1.4883 31.565 0 29.5 0ZM11.0625 6.765C8.9975 6.765 7.375 8.2533 7.375 10.1475C7.375 12.0417 8.9975 13.53 11.0625 13.53C13.1275 13.53 14.75 12.0417 14.75 10.1475C14.75 8.2533 13.1275 6.765 11.0625 6.765ZM47.9375 6.765C45.8725 6.765 44.25 8.2533 44.25 10.1475C44.25 12.0417 45.8725 13.53 47.9375 13.53C50.0025 13.53 51.625 12.0417 51.625 10.1475C51.625 8.2533 50.0025 6.765 47.9375 6.765ZM29.5 13.53C21.3875 13.53 14.75 19.6185 14.75 27.06C14.75 34.5015 21.3875 40.59 29.5 40.59C37.6125 40.59 44.25 34.5015 44.25 27.06C44.25 19.6185 37.6125 13.53 29.5 13.53ZM3.6875 23.6775C1.6225 23.6775 0 25.1658 0 27.06C0 28.9542 1.6225 30.4425 3.6875 30.4425C5.7525 30.4425 7.375 28.9542 7.375 27.06C7.375 25.1658 5.7525 23.6775 3.6875 23.6775ZM55.3125 23.6775C53.2475 23.6775 51.625 25.1658 51.625 27.06C51.625 28.9542 53.2475 30.4425 55.3125 30.4425C57.3775 30.4425 59 28.9542 59 27.06C59 25.1658 57.3775 23.6775 55.3125 23.6775ZM11.0625 40.59C8.9975 40.59 7.375 42.0783 7.375 43.9725C7.375 45.8667 8.9975 47.355 11.0625 47.355C13.1275 47.355 14.75 45.8667 14.75 43.9725C14.75 42.0783 13.1275 40.59 11.0625 40.59ZM47.9375 40.59C45.8725 40.59 44.25 42.0783 44.25 43.9725C44.25 45.8667 45.8725 47.355 47.9375 47.355C50.0025 47.355 51.625 45.8667 51.625 43.9725C51.625 42.0783 50.0025 40.59 47.9375 40.59ZM29.5 47.355C27.435 47.355 25.8125 48.8433 25.8125 50.7375C25.8125 52.6317 27.435 54.12 29.5 54.12C31.565 54.12 33.1875 52.6317 33.1875 50.7375C33.1875 48.8433 31.565 47.355 29.5 47.355Z" fill="black"/>
</svg>
