<svg width="46" height="42" viewBox="0 0 46 42" fill="none" xmlns="http://www.w3.org/2000/svg">
<path d="M1.8144 0H0V1.6464H1.8144V0Z" fill="black"/>
<path d="M3.6288 0H1.8144V1.6464H3.6288V0Z" fill="black"/>
<path d="M5.4432 0H3.6288V1.6464H5.4432V0Z" fill="black"/>
<path d="M7.2576 0H5.4432V1.6464H7.2576V0Z" fill="black"/>
<path d="M9.072 0H7.2576V1.6464H9.072V0Z" fill="black"/>
<path d="M10.8864 0H9.072V1.6464H10.8864V0Z" fill="black"/>
<path d="M12.7008 0H10.8864V1.6464H12.7008V0Z" fill="black"/>
<path d="M16.3296 0H14.5152V1.6464H16.3296V0Z" fill="black"/>
<path d="M18.144 0H16.3296V1.6464H18.144V0Z" fill="black"/>
<path d="M19.9584 0H18.144V1.6464H19.9584V0Z" fill="black"/>
<path d="M23.5872 0H21.7728V1.6464H23.5872V0Z" fill="black"/>
<path d="M27.216 0H25.4016V1.6464H27.216V0Z" fill="black"/>
<path d="M30.8448 0H29.0304V1.6464H30.8448V0Z" fill="black"/>
<path d="M34.4736 0H32.6592V1.6464H34.4736V0Z" fill="black"/>
<path d="M36.288 0H34.4736V1.6464H36.288V0Z" fill="black"/>
<path d="M38.1024 0H36.288V1.6464H38.1024V0Z" fill="black"/>
<path d="M39.9168 0H38.1024V1.6464H39.9168V0Z" fill="black"/>
<path d="M41.7312 0H39.9168V1.6464H41.7312V0Z" fill="black"/>
<path d="M43.5456 0H41.7312V1.6464H43.5456V0Z" fill="black"/>
<path d="M45.36 0H43.5456V1.6464H45.36V0Z" fill="black"/>
<path d="M1.8144 1.6464H0V3.2928H1.8144V1.6464Z" fill="black"/>
<path d="M12.7008 1.6464H10.8864L10.8864 3.2928H12.7008V1.6464Z" fill="black"/>
<path d="M18.144 1.6464H16.3296V3.2928H18.144V1.6464Z" fill="black"/>
<path d="M21.7728 1.6464H19.9584V3.2928H21.7728V1.6464Z" fill="black"/>
<path d="M25.4016 1.6464H23.5872V3.2928H25.4016V1.6464Z" fill="black"/>
<path d="M27.216 1.6464H25.4016V3.2928H27.216V1.6464Z" fill="black"/>
<path d="M30.8448 1.6464H29.0304V3.2928H30.8448V1.6464Z" fill="black"/>
<path d="M34.4736 1.6464H32.6592V3.2928H34.4736V1.6464Z" fill="black"/>
<path d="M45.36 1.6464H43.5456V3.2928H45.36V1.6464Z" fill="black"/>
<path d="M1.8144 3.2928H0V4.9392H1.8144V3.2928Z" fill="black"/>
<path d="M5.4432 3.2928H3.6288V4.9392H5.4432V3.2928Z" fill="black"/>
<path d="M7.2576 3.2928H5.4432V4.9392H7.2576V3.2928Z" fill="black"/>
<path d="M9.072 3.2928H7.2576V4.9392H9.072V3.2928Z" fill="black"/>
<path d="M12.7008 3.2928H10.8864V4.9392H12.7008V3.2928Z" fill="black"/>
<path d="M16.3296 3.2928H14.5152V4.9392H16.3296V3.2928Z" fill="black"/>
<path d="M18.144 3.2928H16.3296V4.9392H18.144V3.2928Z" fill="black"/>
<path d="M25.4016 3.2928H23.5872V4.9392H25.4016V3.2928Z" fill="black"/>
<path d="M34.4736 3.2928H32.6592V4.9392H34.4736V3.2928Z" fill="black"/>
<path d="M38.1024 3.2928H36.288V4.9392H38.1024V3.2928Z" fill="black"/>
<path d="M39.9168 3.2928H38.1024V4.9392H39.9168V3.2928Z" fill="black"/>
<path d="M41.7312 3.2928H39.9168V4.9392H41.7312V3.2928Z" fill="black"/>
<path d="M45.36 3.2928H43.5456V4.9392H45.36V3.2928Z" fill="black"/>
<path d="M1.8144 4.9392H0V6.5856H1.8144V4.9392Z" fill="black"/>
<path d="M5.4432 4.9392H3.6288V6.5856H5.4432V4.9392Z" fill="black"/>
<path d="M7.2576 4.9392H5.4432V6.5856H7.2576V4.9392Z" fill="black"/>
<path d="M9.072 4.9392H7.2576V6.5856H9.072V4.9392Z" fill="black"/>
<path d="M12.7008 4.9392H10.8864V6.5856H12.7008V4.9392Z" fill="black"/>
<path d="M18.144 4.9392H16.3296V6.5856H18.144V4.9392Z" fill="black"/>
<path d="M21.7728 4.9392H19.9584V6.5856H21.7728V4.9392Z" fill="black"/>
<path d="M27.216 4.9392H25.4016V6.5856H27.216V4.9392Z" fill="black"/>
<path d="M29.0304 4.9392H27.216V6.5856H29.0304V4.9392Z" fill="black"/>
<path d="M34.4736 4.9392H32.6592V6.5856H34.4736V4.9392Z" fill="black"/>
<path d="M38.1024 4.9392H36.288V6.5856H38.1024V4.9392Z" fill="black"/>
<path d="M39.9168 4.9392H38.1024V6.5856H39.9168V4.9392Z" fill="black"/>
<path d="M41.7312 4.9392H39.9168V6.5856H41.7312V4.9392Z" fill="black"/>
<path d="M45.36 4.9392H43.5456V6.5856H45.36V4.9392Z" fill="black"/>
<path d="M1.8144 6.5856H0V8.232H1.8144V6.5856Z" fill="black"/>
<path d="M5.4432 6.5856H3.6288V8.232H5.4432V6.5856Z" fill="black"/>
<path d="M7.2576 6.5856H5.4432V8.232H7.2576V6.5856Z" fill="black"/>
<path d="M9.072 6.5856H7.2576V8.232H9.072V6.5856Z" fill="black"/>
<path d="M12.7008 6.5856H10.8864V8.232H12.7008V6.5856Z" fill="black"/>
<path d="M21.7728 6.5856H19.9584V8.232H21.7728V6.5856Z" fill="black"/>
<path d="M25.4016 6.5856H23.5872V8.232H25.4016V6.5856Z" fill="black"/>
<path d="M27.216 6.5856H25.4016V8.232H27.216V6.5856Z" fill="black"/>
<path d="M29.0304 6.5856H27.216V8.232H29.0304V6.5856Z" fill="black"/>
<path d="M34.4736 6.5856H32.6592V8.232H34.4736V6.5856Z" fill="black"/>
<path d="M38.1024 6.5856H36.288V8.232H38.1024V6.5856Z" fill="black"/>
<path d="M39.9168 6.5856H38.1024V8.232H39.9168V6.5856Z" fill="black"/>
<path d="M41.7312 6.5856H39.9168V8.232H41.7312V6.5856Z" fill="black"/>
<path d="M45.36 6.5856H43.5456V8.232H45.36V6.5856Z" fill="black"/>
<path d="M1.8144 8.232H0V9.8784H1.8144V8.232Z" fill="black"/>
<path d="M12.7008 8.232H10.8864V9.8784H12.7008V8.232Z" fill="black"/>
<path d="M18.144 8.232H16.3296V9.8784H18.144V8.232Z" fill="black"/>
<path d="M19.9584 8.232H18.144V9.8784H19.9584V8.232Z" fill="black"/>
<path d="M21.7728 8.232H19.9584V9.8784H21.7728V8.232Z" fill="black"/>
<path d="M25.4016 8.232H23.5872V9.8784H25.4016V8.232Z" fill="black"/>
<path d="M27.216 8.232H25.4016V9.8784H27.216V8.232Z" fill="black"/>
<path d="M30.8448 8.232H29.0304V9.8784H30.8448V8.232Z" fill="black"/>
<path d="M34.4736 8.232H32.6592V9.8784H34.4736V8.232Z" fill="black"/>
<path d="M45.36 8.232H43.5456V9.8784H45.36V8.232Z" fill="black"/>
<path d="M1.8144 9.8784H0V11.5248H1.8144V9.8784Z" fill="black"/>
<path d="M3.6288 9.8784L1.8144 9.8784V11.5248H3.6288V9.8784Z" fill="black"/>
<path d="M5.4432 9.8784H3.6288V11.5248H5.4432V9.8784Z" fill="black"/>
<path d="M7.2576 9.8784H5.4432V11.5248H7.2576V9.8784Z" fill="black"/>
<path d="M9.072 9.8784H7.2576V11.5248H9.072V9.8784Z" fill="black"/>
<path d="M10.8864 9.8784L9.072 9.8784V11.5248H10.8864L10.8864 9.8784Z" fill="black"/>
<path d="M12.7008 9.8784H10.8864L10.8864 11.5248H12.7008V9.8784Z" fill="black"/>
<path d="M16.3296 9.8784L14.5152 9.8784V11.5248H16.3296V9.8784Z" fill="black"/>
<path d="M19.9584 9.8784H18.144V11.5248H19.9584V9.8784Z" fill="black"/>
<path d="M23.5872 9.8784H21.7728V11.5248H23.5872V9.8784Z" fill="black"/>
<path d="M27.216 9.8784H25.4016V11.5248H27.216V9.8784Z" fill="black"/>
<path d="M30.8448 9.8784H29.0304V11.5248H30.8448V9.8784Z" fill="black"/>
<path d="M34.4736 9.8784H32.6592V11.5248H34.4736V9.8784Z" fill="black"/>
<path d="M36.288 9.8784L34.4736 9.8784V11.5248H36.288V9.8784Z" fill="black"/>
<path d="M38.1024 9.8784H36.288V11.5248H38.1024V9.8784Z" fill="black"/>
<path d="M39.9168 9.8784H38.1024V11.5248H39.9168V9.8784Z" fill="black"/>
<path d="M41.7312 9.8784H39.9168V11.5248H41.7312V9.8784Z" fill="black"/>
<path d="M43.5456 9.8784L41.7312 9.8784V11.5248H43.5456V9.8784Z" fill="black"/>
<path d="M45.36 9.8784H43.5456V11.5248H45.36V9.8784Z" fill="black"/>
<path d="M16.3296 11.5248H14.5152V13.1712H16.3296V11.5248Z" fill="black"/>
<path d="M19.9584 11.5248H18.144V13.1712H19.9584V11.5248Z" fill="black"/>
<path d="M21.7728 11.5248H19.9584V13.1712H21.7728V11.5248Z" fill="black"/>
<path d="M23.5872 11.5248H21.7728V13.1712H23.5872V11.5248Z" fill="black"/>
<path d="M25.4016 11.5248H23.5872V13.1712H25.4016V11.5248Z" fill="black"/>
<path d="M1.8144 13.1712H0V14.8176H1.8144V13.1712Z" fill="black"/>
<path d="M5.4432 13.1712H3.6288V14.8176H5.4432V13.1712Z" fill="black"/>
<path d="M10.8864 13.1712H9.072V14.8176H10.8864V13.1712Z" fill="black"/>
<path d="M12.7008 13.1712H10.8864V14.8176H12.7008V13.1712Z" fill="black"/>
<path d="M21.7728 13.1712H19.9584V14.8176H21.7728V13.1712Z" fill="black"/>
<path d="M23.5872 13.1712H21.7728V14.8176H23.5872V13.1712Z" fill="black"/>
<path d="M25.4016 13.1712H23.5872V14.8176H25.4016V13.1712Z" fill="black"/>
<path d="M32.6592 13.1712H30.8448V14.8176H32.6592V13.1712Z" fill="black"/>
<path d="M34.4736 13.1712H32.6592V14.8176H34.4736V13.1712Z" fill="black"/>
<path d="M41.7312 13.1712H39.9168V14.8176H41.7312V13.1712Z" fill="black"/>
<path d="M45.36 13.1712H43.5456V14.8176H45.36V13.1712Z" fill="black"/>
<path d="M1.8144 14.8176H0V16.464H1.8144V14.8176Z" fill="black"/>
<path d="M3.6288 14.8176H1.8144V16.464H3.6288V14.8176Z" fill="black"/>
<path d="M5.4432 14.8176H3.6288V16.464H5.4432V14.8176Z" fill="black"/>
<path d="M7.2576 14.8176H5.4432V16.464H7.2576V14.8176Z" fill="black"/>
<path d="M16.3296 14.8176H14.5152V16.464H16.3296V14.8176Z" fill="black"/>
<path d="M21.7728 14.8176H19.9584V16.464H21.7728V14.8176Z" fill="black"/>
<path d="M25.4016 14.8176H23.5872V16.464H25.4016V14.8176Z" fill="black"/>
<path d="M29.0304 14.8176H27.216V16.464H29.0304V14.8176Z" fill="black"/>
<path d="M32.6592 14.8176H30.8448V16.464H32.6592V14.8176Z" fill="black"/>
<path d="M41.7312 14.8176H39.9168V16.464H41.7312V14.8176Z" fill="black"/>
<path d="M43.5456 14.8176H41.7312V16.464H43.5456V14.8176Z" fill="black"/>
<path d="M3.6288 16.464H1.8144V18.1104H3.6288V16.464Z" fill="black"/>
<path d="M5.4432 16.464H3.6288V18.1104H5.4432V16.464Z" fill="black"/>
<path d="M10.8864 16.464H9.072V18.1104H10.8864V16.464Z" fill="black"/>
<path d="M12.7008 16.464H10.8864V18.1104H12.7008V16.464Z" fill="black"/>
<path d="M14.5152 16.464H12.7008V18.1104H14.5152V16.464Z" fill="black"/>
<path d="M16.3296 16.464H14.5152V18.1104H16.3296V16.464Z" fill="black"/>
<path d="M18.144 16.464H16.3296V18.1104H18.144V16.464Z" fill="black"/>
<path d="M19.9584 16.464H18.144V18.1104H19.9584V16.464Z" fill="black"/>
<path d="M23.5872 16.464H21.7728V18.1104H23.5872V16.464Z" fill="black"/>
<path d="M29.0304 16.464H27.216V18.1104H29.0304V16.464Z" fill="black"/>
<path d="M32.6592 16.464H30.8448V18.1104H32.6592V16.464Z" fill="black"/>
<path d="M38.1024 16.464H36.288V18.1104H38.1024V16.464Z" fill="black"/>
<path d="M43.5456 16.464H41.7312V18.1104H43.5456V16.464Z" fill="black"/>
<path d="M3.6288 18.1104H1.8144V19.7568H3.6288V18.1104Z" fill="black"/>
<path d="M14.5152 18.1104H12.7008V19.7568H14.5152V18.1104Z" fill="black"/>
<path d="M16.3296 18.1104H14.5152V19.7568H16.3296V18.1104Z" fill="black"/>
<path d="M27.216 18.1104H25.4016V19.7568H27.216L27.216 18.1104Z" fill="black"/>
<path d="M30.8448 18.1104H29.0304V19.7568H30.8448V18.1104Z" fill="black"/>
<path d="M36.288 18.1104H34.4736V19.7568H36.288V18.1104Z" fill="black"/>
<path d="M41.7312 18.1104H39.9168V19.7568H41.7312V18.1104Z" fill="black"/>
<path d="M45.36 18.1104H43.5456V19.7568H45.36V18.1104Z" fill="black"/>
<path d="M3.6288 19.7568H1.8144V21.4032H3.6288V19.7568Z" fill="black"/>
<path d="M9.072 19.7568H7.2576V21.4032H9.072V19.7568Z" fill="black"/>
<path d="M12.7008 19.7568H10.8864V21.4032H12.7008V19.7568Z" fill="black"/>
<path d="M21.7728 19.7568H19.9584V21.4032H21.7728V19.7568Z" fill="black"/>
<path d="M30.8448 19.7568H29.0304V21.4032H30.8448V19.7568Z" fill="black"/>
<path d="M32.6592 19.7568H30.8448V21.4032H32.6592V19.7568Z" fill="black"/>
<path d="M34.4736 19.7568H32.6592V21.4032H34.4736V19.7568Z" fill="black"/>
<path d="M36.288 19.7568H34.4736V21.4032H36.288V19.7568Z" fill="black"/>
<path d="M45.36 19.7568H43.5456V21.4032H45.36V19.7568Z" fill="black"/>
<path d="M1.8144 21.4032H0V23.0496H1.8144V21.4032Z" fill="black"/>
<path d="M5.4432 21.4032H3.6288V23.0496H5.4432V21.4032Z" fill="black"/>
<path d="M10.8864 21.4032H9.072V23.0496H10.8864L10.8864 21.4032Z" fill="black"/>
<path d="M14.5152 21.4032H12.7008V23.0496H14.5152V21.4032Z" fill="black"/>
<path d="M16.3296 21.4032H14.5152V23.0496H16.3296V21.4032Z" fill="black"/>
<path d="M19.9584 21.4032H18.144V23.0496H19.9584V21.4032Z" fill="black"/>
<path d="M23.5872 21.4032H21.7728V23.0496H23.5872V21.4032Z" fill="black"/>
<path d="M25.4016 21.4032H23.5872V23.0496H25.4016V21.4032Z" fill="black"/>
<path d="M29.0304 21.4032H27.216V23.0496H29.0304V21.4032Z" fill="black"/>
<path d="M30.8448 21.4032H29.0304V23.0496H30.8448V21.4032Z" fill="black"/>
<path d="M34.4736 21.4032H32.6592V23.0496H34.4736V21.4032Z" fill="black"/>
<path d="M38.1024 21.4032H36.288V23.0496H38.1024V21.4032Z" fill="black"/>
<path d="M39.9168 21.4032H38.1024V23.0496H39.9168V21.4032Z" fill="black"/>
<path d="M43.5456 21.4032H41.7312V23.0496H43.5456V21.4032Z" fill="black"/>
<path d="M45.36 21.4032H43.5456V23.0496H45.36V21.4032Z" fill="black"/>
<path d="M1.8144 23.0496H0V24.696H1.8144V23.0496Z" fill="black"/>
<path d="M10.8864 23.0496H9.072V24.696H10.8864V23.0496Z" fill="black"/>
<path d="M12.7008 23.0496H10.8864V24.696H12.7008V23.0496Z" fill="black"/>
<path d="M19.9584 23.0496H18.144V24.696H19.9584V23.0496Z" fill="black"/>
<path d="M21.7728 23.0496H19.9584V24.696H21.7728V23.0496Z" fill="black"/>
<path d="M23.5872 23.0496H21.7728V24.696H23.5872V23.0496Z" fill="black"/>
<path d="M25.4016 23.0496H23.5872V24.696H25.4016V23.0496Z" fill="black"/>
<path d="M34.4736 23.0496H32.6592V24.696H34.4736V23.0496Z" fill="black"/>
<path d="M36.288 23.0496H34.4736V24.696H36.288V23.0496Z" fill="black"/>
<path d="M38.1024 23.0496H36.288V24.696H38.1024V23.0496Z" fill="black"/>
<path d="M39.9168 23.0496H38.1024V24.696H39.9168V23.0496Z" fill="black"/>
<path d="M1.8144 24.696H0V26.3424H1.8144V24.696Z" fill="black"/>
<path d="M3.6288 24.696L1.8144 24.696V26.3424H3.6288V24.696Z" fill="black"/>
<path d="M7.2576 24.696H5.4432V26.3424H7.2576V24.696Z" fill="black"/>
<path d="M9.072 24.696L7.2576 24.696V26.3424H9.072V24.696Z" fill="black"/>
<path d="M16.3296 24.696H14.5152V26.3424H16.3296V24.696Z" fill="black"/>
<path d="M21.7728 24.696H19.9584V26.3424H21.7728V24.696Z" fill="black"/>
<path d="M27.216 24.696L25.4016 24.696V26.3424H27.216V24.696Z" fill="black"/>
<path d="M36.288 24.696H34.4736V26.3424H36.288V24.696Z" fill="black"/>
<path d="M38.1024 24.696H36.288V26.3424H38.1024V24.696Z" fill="black"/>
<path d="M39.9168 24.696H38.1024V26.3424H39.9168V24.696Z" fill="black"/>
<path d="M7.2576 26.3424H5.4432V27.9888H7.2576V26.3424Z" fill="black"/>
<path d="M9.072 26.3424H7.2576V27.9888H9.072V26.3424Z" fill="black"/>
<path d="M10.8864 26.3424H9.072V27.9888H10.8864V26.3424Z" fill="black"/>
<path d="M12.7008 26.3424H10.8864V27.9888H12.7008V26.3424Z" fill="black"/>
<path d="M16.3296 26.3424H14.5152V27.9888H16.3296V26.3424Z" fill="black"/>
<path d="M18.144 26.3424H16.3296V27.9888H18.144V26.3424Z" fill="black"/>
<path d="M19.9584 26.3424H18.144V27.9888H19.9584V26.3424Z" fill="black"/>
<path d="M21.7728 26.3424H19.9584V27.9888H21.7728V26.3424Z" fill="black"/>
<path d="M23.5872 26.3424H21.7728V27.9888H23.5872V26.3424Z" fill="black"/>
<path d="M29.0304 26.3424H27.216L27.216 27.9888H29.0304V26.3424Z" fill="black"/>
<path d="M30.8448 26.3424H29.0304V27.9888H30.8448V26.3424Z" fill="black"/>
<path d="M32.6592 26.3424H30.8448V27.9888H32.6592V26.3424Z" fill="black"/>
<path d="M34.4736 26.3424H32.6592V27.9888H34.4736V26.3424Z" fill="black"/>
<path d="M36.288 26.3424H34.4736V27.9888H36.288V26.3424Z" fill="black"/>
<path d="M38.1024 26.3424H36.288V27.9888H38.1024V26.3424Z" fill="black"/>
<path d="M39.9168 26.3424H38.1024V27.9888H39.9168V26.3424Z" fill="black"/>
<path d="M43.5456 26.3424H41.7312V27.9888H43.5456V26.3424Z" fill="black"/>
<path d="M45.36 26.3424H43.5456V27.9888H45.36V26.3424Z" fill="black"/>
<path d="M21.7728 27.9888H19.9584V29.6352H21.7728V27.9888Z" fill="black"/>
<path d="M23.5872 27.9888H21.7728V29.6352H23.5872V27.9888Z" fill="black"/>
<path d="M30.8448 27.9888H29.0304V29.6352H30.8448V27.9888Z" fill="black"/>
<path d="M38.1024 27.9888H36.288V29.6352H38.1024V27.9888Z" fill="black"/>
<path d="M39.9168 27.9888H38.1024V29.6352H39.9168V27.9888Z" fill="black"/>
<path d="M41.7312 27.9888H39.9168V29.6352H41.7312V27.9888Z" fill="black"/>
<path d="M1.8144 29.6352H0V31.2816H1.8144V29.6352Z" fill="black"/>
<path d="M3.6288 29.6352H1.8144V31.2816H3.6288V29.6352Z" fill="black"/>
<path d="M5.4432 29.6352H3.6288V31.2816H5.4432V29.6352Z" fill="black"/>
<path d="M7.2576 29.6352H5.4432V31.2816H7.2576V29.6352Z" fill="black"/>
<path d="M9.072 29.6352H7.2576V31.2816H9.072V29.6352Z" fill="black"/>
<path d="M10.8864 29.6352H9.072V31.2816H10.8864V29.6352Z" fill="black"/>
<path d="M12.7008 29.6352H10.8864V31.2816H12.7008V29.6352Z" fill="black"/>
<path d="M18.144 29.6352H16.3296V31.2816H18.144V29.6352Z" fill="black"/>
<path d="M19.9584 29.6352H18.144V31.2816H19.9584V29.6352Z" fill="black"/>
<path d="M23.5872 29.6352H21.7728V31.2816H23.5872V29.6352Z" fill="black"/>
<path d="M25.4016 29.6352H23.5872V31.2816H25.4016V29.6352Z" fill="black"/>
<path d="M29.0304 29.6352H27.216V31.2816H29.0304V29.6352Z" fill="black"/>
<path d="M30.8448 29.6352H29.0304V31.2816H30.8448V29.6352Z" fill="black"/>
<path d="M34.4736 29.6352H32.6592V31.2816H34.4736V29.6352Z" fill="black"/>
<path d="M38.1024 29.6352H36.288V31.2816H38.1024V29.6352Z" fill="black"/>
<path d="M1.8144 31.2816H0V32.928H1.8144V31.2816Z" fill="black"/>
<path d="M12.7008 31.2816H10.8864L10.8864 32.928H12.7008V31.2816Z" fill="black"/>
<path d="M16.3296 31.2816H14.5152V32.928H16.3296V31.2816Z" fill="black"/>
<path d="M18.144 31.2816H16.3296V32.928H18.144V31.2816Z" fill="black"/>
<path d="M19.9584 31.2816H18.144V32.928H19.9584V31.2816Z" fill="black"/>
<path d="M21.7728 31.2816H19.9584V32.928H21.7728V31.2816Z" fill="black"/>
<path d="M25.4016 31.2816H23.5872V32.928H25.4016V31.2816Z" fill="black"/>
<path d="M30.8448 31.2816H29.0304V32.928H30.8448V31.2816Z" fill="black"/>
<path d="M38.1024 31.2816H36.288V32.928H38.1024V31.2816Z" fill="black"/>
<path d="M43.5456 31.2816H41.7312V32.928H43.5456V31.2816Z" fill="black"/>
<path d="M45.36 31.2816H43.5456V32.928H45.36V31.2816Z" fill="black"/>
<path d="M1.8144 32.928H0V34.5744H1.8144V32.928Z" fill="black"/>
<path d="M5.4432 32.928H3.6288V34.5744H5.4432V32.928Z" fill="black"/>
<path d="M7.2576 32.928H5.4432V34.5744H7.2576V32.928Z" fill="black"/>
<path d="M9.072 32.928H7.2576V34.5744H9.072V32.928Z" fill="black"/>
<path d="M12.7008 32.928H10.8864V34.5744H12.7008V32.928Z" fill="black"/>
<path d="M27.216 32.928H25.4016V34.5744H27.216V32.928Z" fill="black"/>
<path d="M30.8448 32.928H29.0304V34.5744H30.8448V32.928Z" fill="black"/>
<path d="M32.6592 32.928H30.8448V34.5744H32.6592V32.928Z" fill="black"/>
<path d="M34.4736 32.928H32.6592V34.5744H34.4736V32.928Z" fill="black"/>
<path d="M36.288 32.928H34.4736V34.5744H36.288V32.928Z" fill="black"/>
<path d="M38.1024 32.928H36.288V34.5744H38.1024V32.928Z" fill="black"/>
<path d="M39.9168 32.928H38.1024V34.5744H39.9168V32.928Z" fill="black"/>
<path d="M41.7312 32.928H39.9168V34.5744H41.7312V32.928Z" fill="black"/>
<path d="M43.5456 32.928H41.7312V34.5744H43.5456V32.928Z" fill="black"/>
<path d="M45.36 32.928H43.5456V34.5744H45.36V32.928Z" fill="black"/>
<path d="M1.8144 34.5744H0V36.2208H1.8144V34.5744Z" fill="black"/>
<path d="M5.4432 34.5744H3.6288V36.2208H5.4432V34.5744Z" fill="black"/>
<path d="M7.2576 34.5744H5.4432V36.2208H7.2576V34.5744Z" fill="black"/>
<path d="M9.072 34.5744H7.2576V36.2208H9.072V34.5744Z" fill="black"/>
<path d="M12.7008 34.5744H10.8864V36.2208H12.7008V34.5744Z" fill="black"/>
<path d="M18.144 34.5744H16.3296V36.2208H18.144V34.5744Z" fill="black"/>
<path d="M21.7728 34.5744H19.9584V36.2208H21.7728V34.5744Z" fill="black"/>
<path d="M23.5872 34.5744H21.7728V36.2208H23.5872V34.5744Z" fill="black"/>
<path d="M25.4016 34.5744H23.5872V36.2208H25.4016V34.5744Z" fill="black"/>
<path d="M27.216 34.5744H25.4016V36.2208H27.216V34.5744Z" fill="black"/>
<path d="M29.0304 34.5744H27.216V36.2208H29.0304V34.5744Z" fill="black"/>
<path d="M30.8448 34.5744H29.0304V36.2208H30.8448V34.5744Z" fill="black"/>
<path d="M32.6592 34.5744H30.8448V36.2208H32.6592V34.5744Z" fill="black"/>
<path d="M36.288 34.5744H34.4736V36.2208H36.288V34.5744Z" fill="black"/>
<path d="M38.1024 34.5744H36.288V36.2208H38.1024V34.5744Z" fill="black"/>
<path d="M39.9168 34.5744H38.1024V36.2208H39.9168V34.5744Z" fill="black"/>
<path d="M41.7312 34.5744H39.9168V36.2208H41.7312V34.5744Z" fill="black"/>
<path d="M43.5456 34.5744H41.7312V36.2208H43.5456V34.5744Z" fill="black"/>
<path d="M45.36 34.5744H43.5456V36.2208H45.36V34.5744Z" fill="black"/>
<path d="M1.8144 36.2208H0V37.8672H1.8144V36.2208Z" fill="black"/>
<path d="M5.4432 36.2208H3.6288V37.8672H5.4432V36.2208Z" fill="black"/>
<path d="M7.2576 36.2208H5.4432V37.8672H7.2576V36.2208Z" fill="black"/>
<path d="M9.072 36.2208H7.2576V37.8672H9.072V36.2208Z" fill="black"/>
<path d="M12.7008 36.2208H10.8864V37.8672H12.7008V36.2208Z" fill="black"/>
<path d="M16.3296 36.2208H14.5152V37.8672H16.3296V36.2208Z" fill="black"/>
<path d="M18.144 36.2208H16.3296V37.8672H18.144V36.2208Z" fill="black"/>
<path d="M27.216 36.2208H25.4016V37.8672H27.216V36.2208Z" fill="black"/>
<path d="M34.4736 36.2208H32.6592V37.8672H34.4736V36.2208Z" fill="black"/>
<path d="M39.9168 36.2208H38.1024V37.8672H39.9168V36.2208Z" fill="black"/>
<path d="M1.8144 37.8672H0V39.5136H1.8144V37.8672Z" fill="black"/>
<path d="M12.7008 37.8672H10.8864V39.5136H12.7008V37.8672Z" fill="black"/>
<path d="M21.7728 37.8672H19.9584V39.5136H21.7728V37.8672Z" fill="black"/>
<path d="M29.0304 37.8672H27.216L27.216 39.5136H29.0304V37.8672Z" fill="black"/>
<path d="M32.6592 37.8672H30.8448V39.5136H32.6592V37.8672Z" fill="black"/>
<path d="M41.7312 37.8672H39.9168V39.5136H41.7312V37.8672Z" fill="black"/>
<path d="M1.8144 39.5136H0V41.16H1.8144V39.5136Z" fill="black"/>
<path d="M3.6288 39.5136H1.8144V41.16H3.6288V39.5136Z" fill="black"/>
<path d="M5.4432 39.5136H3.6288V41.16H5.4432V39.5136Z" fill="black"/>
<path d="M7.2576 39.5136H5.4432V41.16H7.2576V39.5136Z" fill="black"/>
<path d="M9.072 39.5136H7.2576V41.16H9.072V39.5136Z" fill="black"/>
<path d="M10.8864 39.5136H9.072V41.16H10.8864L10.8864 39.5136Z" fill="black"/>
<path d="M12.7008 39.5136H10.8864L10.8864 41.16H12.7008V39.5136Z" fill="black"/>
<path d="M16.3296 39.5136H14.5152V41.16H16.3296V39.5136Z" fill="black"/>
<path d="M18.144 39.5136H16.3296V41.16H18.144V39.5136Z" fill="black"/>
<path d="M19.9584 39.5136H18.144V41.16H19.9584V39.5136Z" fill="black"/>
<path d="M21.7728 39.5136H19.9584V41.16H21.7728V39.5136Z" fill="black"/>
<path d="M25.4016 39.5136H23.5872V41.16H25.4016V39.5136Z" fill="black"/>
<path d="M27.216 39.5136H25.4016V41.16H27.216L27.216 39.5136Z" fill="black"/>
<path d="M29.0304 39.5136H27.216L27.216 41.16H29.0304V39.5136Z" fill="black"/>
<path d="M30.8448 39.5136H29.0304V41.16H30.8448V39.5136Z" fill="black"/>
<path d="M32.6592 39.5136H30.8448V41.16H32.6592V39.5136Z" fill="black"/>
<path d="M34.4736 39.5136H32.6592V41.16H34.4736V39.5136Z" fill="black"/>
<path d="M36.288 39.5136H34.4736V41.16H36.288V39.5136Z" fill="black"/>
<path d="M41.7312 39.5136H39.9168V41.16H41.7312V39.5136Z" fill="black"/>
<path d="M45.36 39.5136H43.5456V41.16H45.36V39.5136Z" fill="black"/>
</svg>
